<svg height="490pt" viewBox="0 -10 490.66667 490" width="490pt" fill="#d4d2d2" xmlns="http://www.w3.org/2000/svg"><path d="m325.332031 251h-309.332031c-8.832031 0-16-7.167969-16-16s7.167969-16 16-16h309.332031c8.832031 0 16 7.167969 16 16s-7.167969 16-16 16zm0 0"/><path d="m240 336.332031c-4.097656 0-8.191406-1.554687-11.308594-4.691406-6.25-6.25-6.25-16.382813 0-22.636719l74.027344-74.023437-74.027344-74.027344c-6.25-6.25-6.25-16.386719 0-22.636719 6.253906-6.25 16.386719-6.25 22.636719 0l85.332031 85.335938c6.25 6.25 6.25 16.382812 0 22.632812l-85.332031 85.332032c-3.136719 3.160156-7.230469 4.714843-11.328125 4.714843zm0 0"/><path d="m256 469.667969c-97.089844 0-182.804688-58.410157-218.410156-148.824219-3.242188-8.191406.808594-17.492188 9.023437-20.734375 8.191407-3.199219 17.515625.789063 20.757813 9.046875 30.742187 78.058594 104.789062 128.511719 188.628906 128.511719 111.742188 0 202.667969-90.925781 202.667969-202.667969s-90.925781-202.667969-202.667969-202.667969c-83.839844 0-157.886719 50.453125-188.628906 128.511719-3.265625 8.257812-12.566406 12.246094-20.757813 9.046875-8.214843-3.242187-12.265625-12.542969-9.023437-20.734375 35.605468-90.414062 121.320312-148.824219 218.410156-148.824219 129.386719 0 234.667969 105.28125 234.667969 234.667969s-105.28125 234.667969-234.667969 234.667969zm0 0"/></svg>