<svg height="512" viewBox="0 0 60 60" width="512" xmlns="http://www.w3.org/2000/svg"><g id="Page-1" fill="none" fill-rule="evenodd"><g id="044---Survey" fill="#455c67" fill-rule="nonzero"><path id="Shape" d="m55 0h-42c-2.760076.00325114-4.99674886 2.23992404-5 5v43h-6c-1.10404407.0012675-1.99873253.8959559-2 2v5c.00325114 2.760076 2.23992404 4.9967489 5 5h42c2.760076-.0032511 4.9967489-2.239924 5-5v-43h6c1.1040441-.0012675 1.9987325-.8959559 2-2v-5c-.0032511-2.76007596-2.239924-4.99674886-5-5zm-46 58h-4c-1.65610033-.0018187-2.99818129-1.3438997-3-3v-5h40v5c-.0011873 1.0824303.350747 2.1357054 1.0024 3zm41-3c-.0000001 1.6568542-1.3431458 2.9999999-3 2.9999999s-2.9999999-1.3431457-3-2.9999999v-5c-.0012675-1.1040441-.8959559-1.9987325-2-2h-32v-43c.0018187-1.65610033 1.3438997-2.99818129 3-3h38.0256c-.6614385.86056068-1.021786 1.91461943-1.0256 3zm8-45h-6v-5c0-1.65685425 1.3431458-3 3-3s3 1.34314575 3 3z"/><path id="Shape" d="m22 5c-4.9705627 0-9 4.02943725-9 9 0 4.9705627 4.0294373 9 9 9s9-4.0294373 9-9c-.0055111-4.96827817-4.0317218-8.99448887-9-9zm0 16c-3.8659932 0-7-3.1340068-7-7s3.1340068-7 7-7 7 3.1340068 7 7c-.0044636 3.8641428-3.1358572 6.9955364-7 7z"/><path id="Shape" d="m22 27c-4.9705627 0-9 4.0294373-9 9s4.0294373 9 9 9 9-4.0294373 9-9c-.0055111-4.9682782-4.0317218-8.9944889-9-9zm0 16c-3.8659932 0-7-3.1340068-7-7s3.1340068-7 7-7 7 3.1340068 7 7c-.0044636 3.8641428-3.1358572 6.9955364-7 7z"/><circle id="Oval" cx="18" cy="13" r="1"/><circle id="Oval" cx="26" cy="13" r="1"/><path id="Shape" d="m24.4883 15.127c-.4822951-.2673356-1.0899376-.0955669-1.3609.3847-.0503411.0828394-.1169483.1546174-.1958.211-.1187994.0862829-.2509095.1525575-.3911.1962-.3523153.1075021-.7286847.1075021-1.081 0-.1404136-.0438561-.2728196-.1101097-.3921-.1962-.0783275-.0566694-.1445548-.1284043-.1948-.211-.1721772-.3161647-.5010093-.5153785-.8609628-.5215905-.3599536-.0062119-.6954637.1815369-.8784477.4915723-.182984.3100355-.1851952.6944985-.0057895 1.0066182.1844562.324852.4347751.6075635.7349.83.2985515.2231822.6329319.3938893.9888.5048.7477958.2357301 1.5500042.2357301 2.2978 0 .3556452-.1107026.6897308-.2814318.9878-.5048.3006714-.2221298.5513754-.5048914.7359-.83.1296141-.2314689.1619414-.5049549.0898666-.7602643s-.2426443-.471517-.4741666-.6010357z"/><circle id="Oval" cx="18" cy="35" r="1"/><circle id="Oval" cx="26" cy="35" r="1"/><path id="Shape" d="m24.1377 37.6816c-.2985515-.2231822-.6329319-.3938893-.9888-.5048-.748-.234399-1.5498-.234399-2.2978 0-.3556452.1107026-.6897308.2814318-.9878.5048-.3006714.2221298-.5513754.5048914-.7359.83-.1794057.3121197-.1771945.6965827.0057895 1.0066182.182984.3100354.5184941.4977842.8784477.4915723.3599535-.006212.6887856-.2054258.8609628-.5215905.0503411-.0828394.1169483-.1546174.1958-.211.1187994-.0862829.2509095-.1525575.3911-.1962.3523153-.1075021.7286847-.1075021 1.081 0 .1404136.0438561.2728196.1101097.3921.1962.0783275.0566694.1445548.1284043.1948.211.1721772.3161647.5010093.5153785.8609628.5215905.3599536.0062119.6954637-.1815369.8784477-.4915723.182984-.3100355.1851952-.6944985.0057895-1.0066182-.1844562-.324852-.4347751-.6075635-.7349-.83z"/><path id="Shape" d="m45 15c-.5522847 0-1 .4477153-1 1v2h-8v-8h6c.5522847 0 1-.44771525 1-1s-.4477153-1-1-1h-6c-1.1040441.00126747-1.9987325.89595593-2 2v8c.0012675 1.1040441.8959559 1.9987325 2 2h8c1.1040441-.0012675 1.9987325-.8959559 2-2v-2c0-.2652165-.1053568-.5195704-.2928932-.7071068s-.4418903-.2928932-.7071068-.2928932z"/><path id="Shape" d="m44 30h-8c-1.1040441.0012675-1.9987325.8959559-2 2v8c.0012675 1.1040441.8959559 1.9987325 2 2h8c1.1040441-.0012675 1.9987325-.8959559 2-2v-8c-.0012675-1.1040441-.8959559-1.9987325-2-2zm-8 10v-8h8l.0015 8z"/><path id="Shape" d="m46.293 8.293-5.293 5.2929-1.293-1.2929c-.3923789-.3789722-1.0160848-.3735524-1.4018186.0121814s-.3911536 1.0094397-.0121814 1.4018186l2 2c.1874626.1875936.4417952.2929936.707.2929936s.5195374-.1054.707-.2929936l6-6c.3789722-.39237889.3735524-1.01608478-.0121814-1.40181858-.3857338-.38573379-1.0094397-.39115363-1.4018186-.01218142z"/></g></g></svg>