<?xml version="1.0" encoding="iso-8859-1"?>
<!-- Generator: Adobe Illustrator 19.0.0, SVG Export Plug-In . SVG Version: 6.00 Build 0)  -->
<svg version="1.1" id="Layer_1" xmlns="http://www.w3.org/2000/svg" xmlns:xlink="http://www.w3.org/1999/xlink" x="0px" y="0px"
	 viewBox="0 0 512.002 512.002" style="enable-background:new 0 0 512.002 512.002;" fill="#ffffff" xml:space="preserve">
<g>
	<g>
		<path d="M470.672,71.575c4.328,0,7.837-3.508,7.837-7.837V31.851c0-10.082-8.203-18.286-18.286-18.286H439.08
			C436.99,5.767,429.882,0,421.434,0H93.23C83.148,0,74.944,8.203,74.944,18.286v22.418H51.779
			c-10.082,0-18.286,8.203-18.286,18.286v15.95c0,10.082,8.203,18.286,18.286,18.286h23.165v27.527H51.779
			c-10.082,0-18.286,8.203-18.286,18.286v15.95c0,10.082,8.203,18.286,18.286,18.286h23.165v27.527H51.779
			c-10.082,0-18.286,8.203-18.286,18.286v15.951c0,10.082,8.203,18.286,18.286,18.286h23.165v27.527H51.779
			c-10.082,0-18.286,8.202-18.286,18.286v15.95c0,10.082,8.203,18.286,18.286,18.286h23.165v27.527H51.779
			c-10.082,0-18.286,8.203-18.286,18.286v15.95c0,10.082,8.203,18.286,18.286,18.286h23.165v22.629
			c0,10.082,8.203,18.286,18.286,18.286h33.93v44.351c0,9.149,5.772,13.315,11.134,13.315c2.31,0,5.864-0.76,9.676-4.379
			l25.797-24.504c0.745-0.708,1.685-0.814,2.179-0.814c0.494,0,1.435,0.107,2.18,0.814l25.797,24.501
			c3.812,3.621,7.365,4.379,9.676,4.379c5.362,0,11.134-4.167,11.134-13.315v-44.351h122.174c4.328,0,7.837-3.508,7.837-7.837
			c0-4.329-3.509-7.837-7.837-7.837H164.925v-67.721c0-4.329-3.509-7.837-7.837-7.837c-4.328,0-7.837,3.508-7.837,7.837v67.721
			H93.23c-1.416,0-2.612-1.196-2.612-2.612v-22.629h9.736c10.082,0,18.286-8.203,18.286-18.286v-15.949
			c0-10.082-8.203-18.286-18.286-18.286h-9.736v-27.527h9.736c10.082,0,18.286-8.203,18.286-18.286v-15.95
			c0-10.083-8.203-18.286-18.286-18.286h-9.736v-27.527h9.736c10.082,0,18.286-8.203,18.286-18.286v-15.951
			c0-10.082-8.203-18.286-18.286-18.286h-9.736v-27.527h9.736c10.082,0,18.286-8.203,18.286-18.286v-15.95
			c0-10.082-8.203-18.286-18.286-18.286h-9.736V93.226h9.736c10.082,0,18.286-8.203,18.286-18.286V58.99
			c0-10.082-8.203-18.286-18.286-18.286h-9.736V18.286c0-1.416,1.196-2.612,2.612-2.612h56.021v323.918
			c0,4.329,3.509,7.837,7.837,7.837c4.328,0,7.837-3.508,7.837-7.837V15.673h256.509c1.416,0,2.612,1.196,2.612,2.612v417.762
			c0,1.416-1.196,2.612-2.612,2.612h-43.179c-4.328,0-7.837,3.508-7.837,7.837s3.509,7.837,7.837,7.837h43.179
			c10.082,0,18.286-8.203,18.286-18.286V217.366h20.504c10.082,0,18.286-8.203,18.286-18.286v-82.306v-2.618V94.04
			c0-4.329-3.509-7.837-7.837-7.837s-7.837,3.508-7.837,7.837v22.736c0,1.416-1.196,2.612-2.612,2.612h-20.504v-90.15h20.504
			c1.416,0,2.612,1.196,2.612,2.612v31.888C462.835,68.068,466.344,71.575,470.672,71.575z M142.832,454.333h66.228v36.549
			l-20.14-19.129c-3.479-3.303-8.086-5.122-12.973-5.122c-4.888,0-9.495,1.819-12.974,5.122l-20.14,19.129V454.333z
			 M100.354,376.571c1.416,0,2.612,1.196,2.612,2.612v15.95c0,1.416-1.196,2.612-2.612,2.612H51.779
			c-1.416,0-2.612-1.196-2.612-2.612v-15.95c0-1.416,1.196-2.612,2.612-2.612H100.354z M100.354,296.522
			c1.416,0,2.612,1.196,2.612,2.612v15.95c0,1.416-1.196,2.612-2.612,2.612H51.779c-1.416,0-2.612-1.196-2.612-2.612v-15.95
			c0-1.416,1.196-2.612,2.612-2.612H100.354z M100.354,216.474c1.416,0,2.612,1.196,2.612,2.612v15.951
			c0,1.416-1.196,2.612-2.612,2.612H51.779c-1.416,0-2.612-1.196-2.612-2.612v-15.951c0-1.416,1.196-2.612,2.612-2.612H100.354z
			 M100.354,136.426c1.416,0,2.612,1.195,2.612,2.612v15.95c0,1.416-1.196,2.612-2.612,2.612H51.779
			c-1.416,0-2.612-1.196-2.612-2.612v-15.95c0-1.417,1.196-2.612,2.612-2.612H100.354z M100.354,56.377
			c1.416,0,2.612,1.196,2.612,2.612v15.95c0,1.416-1.196,2.612-2.612,2.612H51.779c-1.416,0-2.612-1.196-2.612-2.612V58.99
			c0-1.416,1.196-2.612,2.612-2.612H100.354z M460.223,135.061c0.889,0,1.756-0.086,2.612-0.208v64.228
			c0,1.416-1.196,2.612-2.612,2.612h-20.504v-66.632H460.223z"/>
	</g>
</g>
<g>
	<g>
		<path d="M361.536,302.498H225.699c-4.328,0-7.837,3.508-7.837,7.837c0,4.329,3.509,7.837,7.837,7.837h135.837
			c4.328,0,7.837-3.508,7.837-7.837C369.372,306.006,365.864,302.498,361.536,302.498z"/>
	</g>
</g>
<g>
	<g>
		<path d="M337.179,343.249h-87.124c-4.328,0-7.837,3.508-7.837,7.837c0,4.329,3.509,7.837,7.837,7.837h87.124
			c4.328,0,7.837-3.508,7.837-7.837C345.016,346.757,341.507,343.249,337.179,343.249z"/>
	</g>
</g>
<g>
	<g>
		<path d="M361.536,84.114H225.699c-10.082,0-18.286,8.203-18.286,18.286v66.873c0,10.082,8.203,18.286,18.286,18.286h81.502
			c4.328,0,7.837-3.508,7.837-7.837c0-4.329-3.509-7.837-7.837-7.837h-81.502c-1.416,0-2.612-1.196-2.612-2.612V102.4
			c0-1.416,1.196-2.612,2.612-2.612h135.837c1.416,0,2.612,1.196,2.612,2.612v66.873c0,1.416-1.196,2.612-2.612,2.612h-25.078
			c-4.328,0-7.837,3.508-7.837,7.837c0,4.329,3.509,7.837,7.837,7.837h25.078c10.082,0,18.286-8.203,18.286-18.286V102.4
			C379.822,92.318,371.618,84.114,361.536,84.114z"/>
	</g>
</g>
<g>
</g>
<g>
</g>
<g>
</g>
<g>
</g>
<g>
</g>
<g>
</g>
<g>
</g>
<g>
</g>
<g>
</g>
<g>
</g>
<g>
</g>
<g>
</g>
<g>
</g>
<g>
</g>
<g>
</g>
</svg>
