<?xml version="1.0" encoding="iso-8859-1"?>
<!-- Generator: Adobe Illustrator 19.0.0, SVG Export Plug-In . SVG Version: 6.00 Build 0)  -->
<svg version="1.1" id="Capa_1" xmlns="http://www.w3.org/2000/svg" xmlns:xlink="http://www.w3.org/1999/xlink" x="0px" y="0px"
	 viewBox="0 0 512 512" style="enable-background:new 0 0 512 512;" fill="#455c67" xml:space="preserve">
<g>
	<g>
		<g>
			<path d="M508.875,493.792l-54.617-54.617c9.339-12.466,15.076-27.771,15.076-44.508c0-41.167-33.5-74.667-74.667-74.667
				S320,353.5,320,394.667s33.5,74.667,74.667,74.667c16.737,0,32.042-5.737,44.508-15.076l54.617,54.617
				c2.083,2.083,4.813,3.125,7.542,3.125c2.729,0,5.458-1.042,7.542-3.125C513.042,504.708,513.042,497.958,508.875,493.792z
				 M432.452,432.254c-0.035,0.035-0.083,0.044-0.118,0.079s-0.044,0.082-0.078,0.117C422.607,442.049,409.324,448,394.667,448
				c-29.417,0-53.333-23.927-53.333-53.333s23.917-53.333,53.333-53.333S448,365.26,448,394.667
				C448,409.32,442.051,422.604,432.452,432.254z"/>
			<path d="M298.667,298.667h10.667C332.854,298.667,352,279.531,352,256v-10.667c0-7.984-3.044-15.206-7.897-20.818
				c6.927-1.427,13.581-2.961,19.908-4.629c0.487,6.939,1.156,13.69,1.156,21.103c0,4.104,2.354,7.833,6.042,9.615
				c6.646,3.188,12.792,8.99,12.792,29.656c0,1.667-0.292,3.646-0.708,5.823c-1.104,5.781,2.688,11.375,8.458,12.49
				c0.688,0.125,1.375,0.188,2.042,0.188c5,0,9.479-3.552,10.458-8.656c0.708-3.677,1.083-7.031,1.083-9.844
				c0-14.302-2.104-33.865-18.896-45.427c-0.12-7.415-0.762-14.345-1.358-21.307c57.245-19.478,84.254-48.816,84.254-72.38
				c0-33.462-48.087-52.846-96.602-55.497C368.56,54.21,340.931,0,313.438,0c-9.896,0-21.458,2.302-33.708,4.729
				c-13.979,2.781-29.854,5.938-45.063,5.938c-15.208,0-31.083-3.156-45.063-5.938C177.354,2.302,165.792,0,155.896,0
				c-27.493,0-55.122,54.21-59.294,85.648C48.087,88.299,0,107.684,0,141.146c0,23.534,26.944,52.824,84.036,72.302
				c-0.581,6.918-1.022,14.053-1.141,21.385C66.104,246.396,64,265.958,64,280.26c0,18.802,16.75,60.646,40.646,68.344
				c0.188,0.49,0.396,1,0.604,1.531C115.563,376.906,143,448,234.667,448c23.229,0,44.188-4.729,62.333-14.042
				c5.229-2.698,7.313-9.125,4.604-14.365c-2.667-5.25-9.125-7.292-14.354-4.615c-15.104,7.76-32.792,11.688-52.583,11.688
				c-77.042,0-99.792-59.01-109.521-84.208c-1.25-3.229-2.271-5.875-3.146-7.76c-1.75-3.781-5.521-6.198-9.688-6.198
				c-10.313,0-26.979-32.469-26.979-48.24c0-20.667,6.146-26.469,12.792-29.656c3.688-1.781,6.042-5.51,6.042-9.615
				c0-7.211,0.323-14.298,0.793-21.206c6.44,1.706,13.207,3.277,20.271,4.732c-4.853,5.612-7.897,12.833-7.897,20.818V256
				c0,23.531,19.146,42.667,42.667,42.667h10.667c29.417,0,53.333-23.927,53.333-53.333v-8.875
				c1.063-0.604,4.021-1.792,10.667-1.792c6.646,0,9.583,1.188,10.667,1.792v8.875C245.333,274.74,269.25,298.667,298.667,298.667z
				 M330.667,256c0,11.76-9.563,21.333-21.333,21.333h-10.667c-17.646,0-32-14.354-32-32c0-5.885,4.792-10.667,10.667-10.667H320
				c5.875,0,10.667,4.781,10.667,10.667V256z M117.333,93.188c0-26.5,28.438-71.854,38.563-71.854
				c7.792,0,18.354,2.104,29.542,4.323C200.396,28.625,217.354,32,234.667,32s34.271-3.375,49.229-6.344
				c11.188-2.219,21.75-4.323,29.542-4.323c10.125,0,38.563,45.354,38.563,71.854l0.042,47.063
				c-0.063,0.302-7.792,30.417-117.375,30.417c-108.813,0-117.208-29.688-117.333-29.688V93.188z M170.667,277.333H160
				c-11.771,0-21.333-9.573-21.333-21.333v-10.667c0-5.885,4.792-10.667,10.667-10.667H192c5.875,0,10.667,4.781,10.667,10.667
				C202.667,262.979,188.313,277.333,170.667,277.333z M234.667,213.333c-160.813,0-213.333-53.688-213.333-72.188
				c0-16.286,34.419-31.311,74.667-33.927v33.76C96,149.5,102.688,192,234.667,192s138.667-42.5,138.667-51.021v-33.76
				C413.581,109.835,448,124.859,448,141.146C448,159.646,395.479,213.333,234.667,213.333z"/>
		</g>
	</g>
</g>
<g>
</g>
<g>
</g>
<g>
</g>
<g>
</g>
<g>
</g>
<g>
</g>
<g>
</g>
<g>
</g>
<g>
</g>
<g>
</g>
<g>
</g>
<g>
</g>
<g>
</g>
<g>
</g>
<g>
</g>
</svg>
